<svg width="112" height="112" viewBox="0 0 112 112" fill="none" xmlns="http://www.w3.org/2000/svg">
<g clip-path="url(#clip0_2130_499)">
<g filter="url(#filter0_ddddd_2130_499)">
<path d="M86.5813 48.1314C85.4031 46.9001 84.1844 45.6314 83.725 44.5157C83.3 43.4939 83.275 41.8001 83.25 40.1595C83.2031 37.1095 83.1531 33.6532 80.75 31.2501C78.3469 28.847 74.8906 28.797 71.8406 28.7501C70.2 28.7251 68.5062 28.7001 67.4844 28.2751C66.3719 27.8157 65.1 26.597 63.8687 25.4189C61.7125 23.347 59.2625 21.0001 56 21.0001C52.7375 21.0001 50.2906 23.347 48.1313 25.4189C46.9 26.597 45.6313 27.8157 44.5156 28.2751C43.5 28.7001 41.8 28.7251 40.1594 28.7501C37.1094 28.797 33.6531 28.847 31.25 31.2501C28.8469 33.6532 28.8125 37.1095 28.75 40.1595C28.725 41.8001 28.7 43.4939 28.275 44.5157C27.8156 45.6282 26.5969 46.9001 25.4187 48.1314C23.3469 50.2876 21 52.7376 21 56.0001C21 59.2626 23.3469 61.7095 25.4187 63.8689C26.5969 65.1001 27.8156 66.3689 28.275 67.4845C28.7 68.5064 28.725 70.2001 28.75 71.8407C28.7969 74.8907 28.8469 78.347 31.25 80.7501C33.6531 83.1532 37.1094 83.2033 40.1594 83.2501C41.8 83.2751 43.4937 83.3001 44.5156 83.7251C45.6281 84.1845 46.9 85.4033 48.1313 86.5814C50.2875 88.6533 52.7375 91.0001 56 91.0001C59.2625 91.0001 61.7094 88.6533 63.8687 86.5814C65.1 85.4033 66.3688 84.1845 67.4844 83.7251C68.5062 83.3001 70.2 83.2751 71.8406 83.2501C74.8906 83.2033 78.3469 83.1532 80.75 80.7501C83.1531 78.347 83.2031 74.8907 83.25 71.8407C83.275 70.2001 83.3 68.5064 83.725 67.4845C84.1844 66.372 85.4031 65.1001 86.5813 63.8689C88.6531 61.7126 91 59.2626 91 56.0001C91 52.7376 88.6531 50.2907 86.5813 48.1314ZM70.2688 50.2689L52.7688 67.7689C52.5366 68.0013 52.2608 68.1857 51.9574 68.3115C51.6539 68.4373 51.3285 68.5021 51 68.5021C50.6715 68.5021 50.3461 68.4373 50.0427 68.3115C49.7392 68.1857 49.4634 68.0013 49.2313 67.7689L41.7312 60.2689C41.2621 59.7998 40.9986 59.1635 40.9986 58.5001C40.9986 57.8367 41.2621 57.2005 41.7312 56.7314C42.2003 56.2623 42.8366 55.9987 43.5 55.9987C44.1634 55.9987 44.7997 56.2623 45.2688 56.7314L51 62.4657L66.7313 46.7314C66.9635 46.4991 67.2393 46.3148 67.5428 46.1891C67.8462 46.0634 68.1715 45.9987 68.5 45.9987C68.8285 45.9987 69.1538 46.0634 69.4572 46.1891C69.7607 46.3148 70.0365 46.4991 70.2688 46.7314C70.501 46.9636 70.6853 47.2394 70.811 47.5429C70.9367 47.8464 71.0014 48.1716 71.0014 48.5001C71.0014 48.8286 70.9367 49.1539 70.811 49.4574C70.6853 49.7608 70.501 50.0366 70.2688 50.2689Z" fill="#45B442"/>
<path d="M62.6589 26.6833L62.6562 26.6808C60.3822 24.4956 58.4382 22.7501 56 22.7501C53.5618 22.7501 51.6218 24.495 49.3428 26.6816L49.3411 26.6833L49.2931 26.7292C48.7012 27.2957 48.0488 27.92 47.4012 28.4603C46.7518 29.0021 45.9932 29.5584 45.1865 29.8914C44.4173 30.2123 43.5149 30.3407 42.7159 30.4067C41.9031 30.4738 41.0225 30.4872 40.227 30.4993L40.1863 30.4999C36.9781 30.5492 34.3055 30.6695 32.4874 32.4876C30.6705 34.3045 30.5658 36.9674 30.4997 40.1908C30.4997 40.1923 30.4997 40.1938 30.4996 40.1954L30.4992 40.2262C30.4871 41.0219 30.4737 41.9014 30.4066 42.7138C30.3404 43.5143 30.2117 44.4153 29.8917 45.1857C29.5589 45.9907 29.0025 46.7496 28.4605 47.3997C27.9154 48.0535 27.2852 48.7121 26.7141 49.3089L26.6832 49.3412L26.6806 49.3439C24.4955 51.618 22.75 53.5619 22.75 56.0001C22.75 58.4383 24.4949 60.3783 26.6815 62.6573L26.6832 62.659L26.7291 62.7071C27.2956 63.299 27.9198 63.9513 28.4602 64.599C29.0023 65.2488 29.559 66.0081 29.892 66.8154C30.2118 67.5856 30.3404 68.4862 30.4066 69.2865C30.4737 70.0988 30.4871 70.9783 30.4992 71.774L30.4998 71.8139C30.5491 75.022 30.6694 77.6947 32.4874 79.5127C34.3054 81.3307 36.978 81.451 40.186 81.5003C40.1861 81.5003 40.1862 81.5003 40.1863 81.5003L40.226 81.5009C41.0217 81.513 41.9013 81.5264 42.7137 81.5936C43.5142 81.6597 44.4151 81.7884 45.1856 82.1084C45.9906 82.4412 46.7495 82.9976 47.3996 83.5396C48.0534 84.0847 48.712 84.715 49.3088 85.2861L49.3411 85.317L49.3438 85.3195C51.6178 87.5046 53.5618 89.2501 56 89.2501C58.4382 89.2501 60.3782 87.5052 62.6572 85.3186L62.6589 85.317L62.7069 85.271C63.2988 84.7046 63.9512 84.0803 64.5988 83.54C65.2491 82.9975 66.0088 82.4405 66.8166 82.1076C67.5865 81.7882 68.4866 81.6597 69.2863 81.5936C70.0987 81.5264 70.9783 81.513 71.774 81.5009L71.8137 81.5003C71.8138 81.5003 71.8139 81.5003 71.814 81.5003C75.022 81.451 77.6946 81.3307 79.5126 79.5127C81.3306 77.6947 81.4509 75.0221 81.5002 71.8141C81.5002 71.814 81.5002 71.8139 81.5002 71.8139L81.5008 71.7741C81.5129 70.9784 81.5263 70.0989 81.5934 69.2865C81.6596 68.486 81.7883 67.585 82.1083 66.8145C82.1086 66.8138 82.1089 66.8132 82.1092 66.8125L83.725 67.4845L62.6589 26.6833ZM62.6589 26.6833L62.6911 26.7141C63.288 27.2853 63.9466 27.9155 64.6004 28.4606C65.2505 29.0027 66.0094 29.559 66.8144 29.8918C67.5849 30.2118 68.4858 30.3405 69.2863 30.4067C70.0987 30.4738 70.9782 30.4872 71.7739 30.4993L71.8137 30.4999C75.0219 30.5492 77.6945 30.6695 79.5126 32.4876C81.3306 34.3055 81.4509 36.9781 81.5002 40.1862M62.6589 26.6833L81.5002 40.1862M81.5002 40.1862C81.5002 40.1862 81.5002 40.1863 81.5002 40.1864L81.5002 40.1862ZM85.3168 49.3412L85.3185 49.343L83.725 44.5157L82.1068 45.1821C82.1071 45.1827 82.1073 45.1833 82.1076 45.1839C82.4405 45.9915 82.9974 46.7511 83.5398 47.4013C84.0802 48.0489 84.7045 48.7013 85.271 49.2933L85.3168 49.3412ZM41.7312 56.7314L40.4938 55.4939C39.6965 56.2912 39.2486 57.3726 39.2486 58.5001C39.2486 59.6277 39.6965 60.709 40.4938 61.5063L47.9931 69.0056C47.9934 69.0058 47.9936 69.0061 47.9938 69.0063C48.3884 69.4011 48.8569 69.7144 49.3725 69.9281C49.8885 70.142 50.4415 70.2521 51 70.2521C51.5585 70.2521 52.1115 70.142 52.6275 69.9281C53.1434 69.7142 53.6122 69.4008 54.0069 69.0056L71.5062 51.5063L70.2688 50.2689L71.5062 51.5063C71.901 51.1115 72.2141 50.6429 72.4278 50.1271C72.6414 49.6113 72.7514 49.0584 72.7514 48.5001C72.7514 47.9418 72.6414 47.389 72.4278 46.8732C72.2141 46.3574 71.901 45.8887 71.5062 45.4939L70.2688 46.7314L71.5062 45.4939C71.1114 45.0992 70.6427 44.786 70.1269 44.5724C69.6111 44.3587 69.0583 44.2487 68.5 44.2487C67.9417 44.2487 67.3889 44.3587 66.8731 44.5723C66.3573 44.786 65.8886 45.0992 65.4938 45.4939L65.4937 45.4941L51.0002 59.9904L46.5065 55.4943L46.5062 55.4939C45.7089 54.6966 44.6275 54.2487 43.5 54.2487C42.3725 54.2487 41.2911 54.6966 40.4938 55.4939L41.7312 56.7314Z" stroke="white" stroke-width="3.5"/>
</g>
</g>
<defs>
<filter id="filter0_ddddd_2130_499" x="15.75" y="19.2501" width="80.5" height="98" filterUnits="userSpaceOnUse" color-interpolation-filters="sRGB">
<feFlood flood-opacity="0" result="BackgroundImageFix"/>
<feColorMatrix in="SourceAlpha" type="matrix" values="0 0 0 0 0 0 0 0 0 0 0 0 0 0 0 0 0 0 127 0" result="hardAlpha"/>
<feOffset/>
<feGaussianBlur stdDeviation="0.875"/>
<feColorMatrix type="matrix" values="0 0 0 0 0 0 0 0 0 0 0 0 0 0 0 0 0 0 0.29 0"/>
<feBlend mode="normal" in2="BackgroundImageFix" result="effect1_dropShadow_2130_499"/>
<feColorMatrix in="SourceAlpha" type="matrix" values="0 0 0 0 0 0 0 0 0 0 0 0 0 0 0 0 0 0 127 0" result="hardAlpha"/>
<feOffset dy="3.5"/>
<feGaussianBlur stdDeviation="1.75"/>
<feColorMatrix type="matrix" values="0 0 0 0 0 0 0 0 0 0 0 0 0 0 0 0 0 0 0.26 0"/>
<feBlend mode="normal" in2="effect1_dropShadow_2130_499" result="effect2_dropShadow_2130_499"/>
<feColorMatrix in="SourceAlpha" type="matrix" values="0 0 0 0 0 0 0 0 0 0 0 0 0 0 0 0 0 0 127 0" result="hardAlpha"/>
<feOffset dy="7"/>
<feGaussianBlur stdDeviation="2.625"/>
<feColorMatrix type="matrix" values="0 0 0 0 0 0 0 0 0 0 0 0 0 0 0 0 0 0 0.15 0"/>
<feBlend mode="normal" in2="effect2_dropShadow_2130_499" result="effect3_dropShadow_2130_499"/>
<feColorMatrix in="SourceAlpha" type="matrix" values="0 0 0 0 0 0 0 0 0 0 0 0 0 0 0 0 0 0 127 0" result="hardAlpha"/>
<feOffset dy="14"/>
<feGaussianBlur stdDeviation="2.625"/>
<feColorMatrix type="matrix" values="0 0 0 0 0 0 0 0 0 0 0 0 0 0 0 0 0 0 0.04 0"/>
<feBlend mode="normal" in2="effect3_dropShadow_2130_499" result="effect4_dropShadow_2130_499"/>
<feColorMatrix in="SourceAlpha" type="matrix" values="0 0 0 0 0 0 0 0 0 0 0 0 0 0 0 0 0 0 127 0" result="hardAlpha"/>
<feOffset dy="21"/>
<feGaussianBlur stdDeviation="2.625"/>
<feColorMatrix type="matrix" values="0 0 0 0 0 0 0 0 0 0 0 0 0 0 0 0 0 0 0.01 0"/>
<feBlend mode="normal" in2="effect4_dropShadow_2130_499" result="effect5_dropShadow_2130_499"/>
<feBlend mode="normal" in="SourceGraphic" in2="effect5_dropShadow_2130_499" result="shape"/>
</filter>
<clipPath id="clip0_2130_499">
<rect width="112" height="112" fill="white"/>
</clipPath>
</defs>
</svg>
